#!OML:ASF E:\emotionWalksFemale\Project 1\Capture day 1\Session 1\Female1.ASF
:FULLY-SPECIFIED
:DEGREES
434
root 9.60052 15.5914 11.51 268.719 -89.4309 89.3096
lowerback 8.07977 0.542452 0.605624
upperback -3.82213 0.776462 -0.0720283
thorax -8.5752 0.334641 -0.535057
lowerneck -7.99689 -2.42975 -6.77722
upperneck 11.0527 -3.29436 6.65057
head 4.84444 -1.52317 2.95425
rclavicle -2.31087e-015 -5.96354e-016
rhumerus -44.6659 8.15626 -91.144
rradius 40.2121
rwrist 23.3005
rhand -6.58911 -60.613
rfingers 7.12502
rthumb 19.266 630.321
lclavicle -2.31087e-015 -5.96354e-016
lhumerus -42.0156 5.61224 74.9308
lradius 50.6771
lwrist 4.09664
lhand -3.62201 -34.6687
lfingers 7.12502
lthumb 22.1169 -5.91365
rfemur 1.98033 23.9577 28.2474
rtibia 16.0238
rfoot -15.8305 -26.3803
rtoes 5.61931
lfemur -1.29454 -22.9113 -25.4481
ltibia 20.6424
lfoot -20.3861 26.3349
ltoes -22.1966
435
root 9.59316 15.5926 11.5184 245.049 -89.4606 113.077
lowerback 7.92651 0.509942 0.535283
upperback -3.84734 0.729117 0.00702194
thorax -8.51523 0.318017 -0.403003
lowerneck -7.94997 -2.29088 -6.58496
upperneck 10.9635 -3.11051 6.50804
head 4.79121 -1.43407 2.89078
rclavicle -4.36084e-015 -3.57812e-015
rhumerus -44.9302 8.50292 -91.5289
rradius 40.5631
rwrist 23.0701
rhand -6.14699 -60.3183
rfingers 7.12502
rthumb 19.6911 630.659
lclavicle -4.36084e-015 -3.57812e-015
lhumerus -42.6528 5.65934 75.322
lradius 50.3074
lwrist 3.9658
lhand -3.48379 -34.5276
lfingers 7.12502
lthumb 22.2496 -5.78836
rfemur 1.91258 24.3992 28.3568
rtibia 16.0556
rfoot -15.4763 -26.7803
rtoes 4.29379
lfemur -1.32295 -22.8195 -25.3721
ltibia 20.6231
lfoot -20.4247 26.3675
ltoes -22.223
436
root 9.59447 15.5959 11.5265 241.485 -89.4623 116.719
lowerback 7.98911 0.395643 0.368848
upperback -3.93206 0.567504 0.151199
thorax -8.64845 0.252301 -0.13319
lowerneck -7.9142 -2.13175 -6.563
upperneck 11.0224 -2.87609 6.30027
head 4.7842 -1.33108 2.83869
rclavicle 2.41026e-015 3.97569e-015
rhumerus -45.1683 8.61742 -91.5843
rradius 40.8048
rwrist 23.3577
rhand -5.17349 -59.3378
rfingers 7.12502
rthumb 20.6267 631.738
lclavicle 2.41026e-015 3.97569e-015
lhumerus -43.4575 6.18453 75.7137
lradius 49.918
lwrist 3.36182
lhand -3.25373 -34.5299
lfingers 7.12502
lthumb 22.4704 -5.8172
rfemur 1.80389 24.4594 28.3397
rtibia 16.0965
rfoot -15.4471 -26.8199
rtoes 4.16834
lfemur -1.42249 -22.4981 -25.2752
ltibia 20.5992
lfoot -20.5095 25.9777
ltoes -21.4156
437
root 9.59159 15.5944 11.5361 226.868 -89.3962 131.351
lowerback 8.07568 0.354544 0.192572
upperback -3.98324 0.502462 0.285651
thorax -8.75793 0.234684 0.117665
lowerneck -7.9967 -2.0262 -6.55729
upperneck 11.1979 -2.72149 6.17465
head 4.84002 -1.2617 2.80916
rclavicle 6.03808e-015 -7.95139e-015
rhumerus -45.5255 9.03887 -91.8418
rradius 41.1817
rwrist 22.9433
rhand -4.568 -58.4669
rfingers 7.12502
rthumb 21.2084 632.673
lclavicle 6.03808e-015 -7.95139e-015
lhumerus -44.2078 6.77832 76.1079
lradius 49.4702
lwrist 2.73452
lhand -2.61943 -34.6675
lfingers 7.12502
lthumb 23.0792 -6.02961
rfemur 1.74919 24.3939 28.311
rtibia 16.1708
rfoot -15.5305 -26.5822
rtoes 4.25478
lfemur -1.40148 -22.1492 -25.2459
ltibia 20.5449
lfoot -20.6869 25.8805
ltoes -21.1851
438
root 9.58423 15.5913 11.5503 210.228 -89.2324 147.945
lowerback 8.1337 0.400518 0.215445
upperback -3.98307 0.570036 0.320962
thorax -8.79208 0.267358 0.131337
lowerneck -8.10691 -2.01415 -6.71527
upperneck 11.3464 -2.71574 6.40654
head 4.90874 -1.25056 2.90838
rclavicle -3.35449e-015 1.78906e-015
rhumerus -45.8421 9.05874 -92.1186
rradius 41.4944
rwrist 22.4398
rhand -4.4296 -57.8778
rfingers 7.12502
rthumb 21.3414 633.277
lclavicle -3.35449e-015 1.78906e-015
lhumerus -44.7448 6.99805 76.5131
lradius 48.9072
lwrist 2.386
lhand -2.00553 -34.6442
lfingers 7.12502
lthumb 23.6681 -6.0812
rfemur 1.77062 24.4499 28.3274
rtibia 16.2784
rfoot -15.5589 -26.4513
rtoes 4.1811
lfemur -1.21994 -22.0499 -25.3174
ltibia 20.4508
lfoot -21.2064 25.9258
ltoes -19.9075
439
root 9.57502 15.592 11.5678 202.463 -88.9971 155.655
lowerback 8.14462 0.43995 0.278844
upperback -3.98662 0.63202 0.341114
thorax -8.80202 0.294388 0.107292
lowerneck -8.05044 -1.96791 -6.87209
upperneck 11.3467 -2.65591 6.55596
head 4.89889 -1.22014 2.9857
rclavicle 6.13748e-015 -8.54774e-015
rhumerus -46.2099 9.08567 -92.4229
rradius 41.7862
rwrist 22.1201
rhand -4.06176 -57.5392
rfingers 7.12502
rthumb 21.6947 633.656
lclavicle 6.13748e-015 -8.54774e-015
lhumerus -45.2973 7.26443 76.8755
lradius 48.2405
lwrist 2.02139
lhand -1.6845 -34.4953
lfingers 7.12502
lthumb 23.976 -5.9725
rfemur 1.81653 24.6946 28.2949
rtibia 16.3888
rfoot -15.8371 -26.3913
rtoes 4.92359
lfemur -0.989207 -22.1978 -25.5059
ltibia 20.3498
lfoot -21.5138 26.1069
ltoes -18.7361
440
root 9.57878 15.5967 11.581 204.828 -88.9669 153.472
lowerback 8.12795 0.405533 0.244052
upperback -4.08637 0.581896 0.359355
thorax -8.90129 0.271762 0.154001
lowerneck -7.96426 -1.90217 -6.85921
upperneck 11.2513 -2.55395 6.44398
head 4.8465 -1.17723 2.95539
rclavicle -7.50412e-015 -1.98785e-015
rhumerus -46.5562 9.00707 -92.6205
rradius 42.156
rwrist 22.1316
rhand -3.56674 -57.1672
rfingers 7.12502
rthumb 22.17 634.084
lclavicle -7.50412e-015 -1.98785e-015
lhumerus -45.8535 7.74749 77.1662
lradius 47.54
lwrist 1.46798
lhand -1.36688 -34.4134
lfingers 7.12502
lthumb 24.2805 -5.93102
rfemur 1.55614 24.7678 28.1097
rtibia 16.467
rfoot -15.9127 -26.4019
rtoes 4.85095
lfemur -1.17806 -22.0692 -25.499
ltibia 20.258
lfoot -20.8541 26.2549
ltoes -21.0498
441
root 9.5772 15.599 11.6001 207.832 -88.9054 150.588
lowerback 8.02016 0.399162 0.397559
upperback -4.14202 0.580594 0.244503
thorax -8.89563 0.257631 -0.0532457
lowerneck -7.82456 -1.87469 -6.79462
upperneck 11.1954 -2.53431 6.46
head 4.80363 -1.1667 2.9515
rclavicle -1.02126e-014 5.76476e-015
rhumerus -46.7008 8.29853 -92.5284
rradius 42.3959
rwrist 22.9876
rhand -2.26334 -56.4528
rfingers 7.12502
rthumb 23.4208 634.952
lclavicle -1.02126e-014 5.76476e-015
lhumerus -46.4065 8.04502 77.3764
lradius 46.8762
lwrist 0.979577
lhand -1.03957 -34.3892
lfingers 7.12502
lthumb 24.5943 -5.94912
rfemur 1.37508 24.4753 27.8432
rtibia 16.4728
rfoot -15.7587 -26.1539
rtoes 4.07448
lfemur -1.28082 -22.0368 -25.601
ltibia 20.1921
lfoot -20.5548 26.4132
ltoes -21.9534
442
root 9.56784 15.5996 11.6197 204.803 -88.7673 153.657
lowerback 7.84832 0.440381 0.643448
upperback -4.18362 0.653127 0.13148
thorax -8.83559 0.274129 -0.321167
lowerneck -7.5464 -1.8553 -6.78529
upperneck 11.1791 -2.54944 6.61807
head 4.75402 -1.17087 2.99978
rclavicle 4.96962e-015 -5.1684e-015
rhumerus -46.9317 8.12904 -92.9143
rradius 42.3991
rwrist 22.5056
rhand -2.81095 -55.2926
rfingers 7.12502
rthumb 22.8954 636.047
lclavicle 4.96962e-015 -5.1684e-015
lhumerus -46.9505 8.11241 77.6648
lradius 46.1022
lwrist 0.627305
lhand -0.947404 -34.1964
lfingers 7.12502
lthumb 24.6826 -5.76834
rfemur 1.35313 24.1792 27.682
rtibia 16.3689
rfoot -15.5536 -25.8415
rtoes 3.20701
lfemur -1.25112 -22.1317 -25.7134
ltibia 20.176
lfoot -21.0932 26.3747
ltoes -19.6406
443
root 9.5545 15.6036 11.638 198.187 -88.5923 160.207
lowerback 7.75684 0.542435 0.889955
upperback -4.10899 0.812871 0.0659008
thorax -8.695 0.33659 -0.552161
lowerneck -7.58378 -1.90385 -6.59999
upperneck 11.167 -2.63422 6.60432
head 4.75998 -1.20501 2.95894
rclavicle 4.47266e-016 1.78906e-015
rhumerus -47.2 8.0753 -93.2455
rradius 42.5257
rwrist 22.121
rhand -3.12932 -55.1037
rfingers 7.12502
rthumb 22.5899 636.198
lclavicle 4.47266e-016 1.78906e-015
lhumerus -47.1585 8.3192 78.0349
lradius 45.1074
lwrist 0.131993
lhand -0.970642 -33.9573
lfingers 7.12502
lthumb 24.6603 -5.52622
rfemur 1.45886 24.0193 27.652
rtibia 16.3029
rfoot -15.6174 -25.4624
rtoes 3.27279
lfemur -0.980718 -22.5641 -25.8354
ltibia 20.1593
lfoot -22.321 26.0276
ltoes -13.3827
444
root 9.54889 15.611 11.6519 192.683 -88.54 165.738
lowerback 7.74797 0.624056 0.98987
upperback -4.02633 0.935089 0.0735807
thorax -8.59688 0.392095 -0.617944
lowerneck -7.97209 -1.98711 -6.14216
upperneck 11.2426 -2.73901 6.25116
head 4.84582 -1.25018 2.7638
rclavicle -7.26806e-015 -4.77083e-015
rhumerus -47.5375 7.96045 -93.4158
rradius 43.0401
rwrist 21.9887
rhand -2.61808 -55.1003
rfingers 7.12502
rthumb 23.0805 636.262
lclavicle -7.26806e-015 -4.77083e-015
lhumerus -47.2127 8.9343 78.2938
lradius 44.0731
lwrist -0.702168
lhand -0.888799 -33.8472
lfingers 7.12502
lthumb 24.7388 -5.42692
rfemur 1.54258 24.0137 27.675
rtibia 16.0994
rfoot -15.7396 -25.208
rtoes 4.15846
lfemur -0.932123 -22.7203 -25.7722
ltibia 20.2277
lfoot -22.9987 25.6262
ltoes -9.8486
445
root 9.55201 15.606 11.6588 188.347 -88.5876 170.227
lowerback 7.75694 0.617511 0.910151
upperback -4.0651 0.924769 0.17296
thorax -8.64723 0.394137 -0.466789
lowerneck -8.23062 -1.97829 -5.85424
upperneck 11.3844 -2.7147 5.93034
head 4.92391 -1.24065 2.61656
rclavicle -7.67806e-015 1.19271e-015
rhumerus -47.7961 7.95763 -93.5389
rradius 43.2634
rwrist 22.037
rhand -1.75328 -54.6136
rfingers 7.12502
rthumb 23.91 636.855
lclavicle -7.67806e-015 1.19271e-015
lhumerus -47.4701 9.75198 78.4353
lradius 43.0466
lwrist -1.61605
lhand -0.486621 -33.8056
lfingers 7.12502
lthumb 25.1242 -5.43872
rfemur 1.44985 24.1812 27.7602
rtibia 15.9856
rfoot -15.5632 -25.3954
rtoes 4.02263
lfemur -1.30269 -21.9435 -25.5252
ltibia 20.2725
lfoot -20.7277 26.6258
ltoes -21.3592
446
root 9.54766 15.6159 11.6683 187.144 -88.5588 171.458
lowerback 7.72397 0.585909 0.863693
upperback -4.05579 0.87978 0.213543
thorax -8.61971 0.376445 -0.390486
lowerneck -8.30092 -1.90532 -5.88125
upperneck 11.43 -2.61066 5.93508
head 4.9438 -1.18924 2.62956
rclavicle -1.2101e-014 -4.37326e-015
rhumerus -47.928 8.10733 -93.8178
rradius 43.1978
rwrist 21.9423
rhand -1.20807 -54.1511
rfingers 7.12502
rthumb 24.4328 637.387
lclavicle -1.2101e-014 -4.37326e-015
lhumerus -47.7553 10.2904 78.628
lradius 41.9664
lwrist -2.33395
lhand 0.00819191 -33.8292
lfingers 7.12502
lthumb 25.5982 -5.52955
rfemur 1.45444 24.2732 27.7691
rtibia 15.9612
rfoot -15.4341 -25.5539
rtoes 3.5844
lfemur -1.19944 -22.2405 -25.5195
ltibia 20.3074
lfoot -22.8434 25.4861
ltoes -11.5296
447
root 9.53632 15.6058 11.6826 185.829 -88.431 172.64
lowerback 7.67999 0.605036 0.977319
upperback -3.96303 0.916544 0.190288
thorax -8.49087 0.388785 -0.483335
lowerneck -8.27828 -1.87008 -6.05312
upperneck 11.3985 -2.56192 6.10736
head 4.93137 -1.16244 2.71532
rclavicle -7.72775e-015 -2.78299e-015
rhumerus -48.1673 8.44211 -94.2433
rradius 43.1617
rwrist 21.1073
rhand -2.1309 -54.2759
rfingers 7.12502
rthumb 23.5478 637.146
lclavicle -7.72775e-015 -2.78299e-015
lhumerus -48.0416 10.4801 78.889
lradius 40.964
lwrist -3.15132
lhand 0.310104 -33.9236
lfingers 7.12502
lthumb 25.8874 -5.66586
rfemur 1.61602 24.2427 27.7833
rtibia 15.983
rfoot -15.3988 -25.517
rtoes 2.95082
lfemur -1.03716 -22.3488 -25.7428
ltibia 20.3366
lfoot -22.1615 26.5367
ltoes -16.2039
